<svg viewBox="0 0 1454.88 454.47" fill="transpaent" stroke="black" strokeWidth="1px">
<circle cx="104.42" cy="150.37" r="102.7"/>
<path d="M135.7,66.25a11.56,11.56,0,0,1,18.55,9.27l-.22,47a11.56,11.56,0,0,0,5,9.55l38.58,26.82a11.56,11.56,0,0,1-3.08,20.5l-44.75,14.31a11.58,11.58,0,0,0-7.55,7.67l-13.58,45a11.56,11.56,0,0,1-20.45,3.41L80.72,211.59a11.55,11.55,0,0,0-9.62-4.81l-47,1a11.57,11.57,0,0,1-9.57-18.4l27.8-37.87A11.57,11.57,0,0,0,44,140.85L28.51,96.48A11.56,11.56,0,0,1,43.05,81.7L87.66,96.42a11.54,11.54,0,0,0,10.61-1.77Z" transform="translate(0 0.16)"/>
<path d="M595.92,315.18a7.56,7.56,0,0,1,10.3,0L621,328.84a7.54,7.54,0,0,0,4.86,2l20.09.76a7.57,7.57,0,0,1,7.28,7.28L654,359a7.55,7.55,0,0,0,2,4.87l13.67,14.74a7.58,7.58,0,0,1,0,10.3L656,403.62a7.55,7.55,0,0,0-2,4.87l-.76,20.08a7.58,7.58,0,0,1-7.28,7.29l-20.09.75a7.54,7.54,0,0,0-4.86,2l-14.74,13.66a7.56,7.56,0,0,1-10.3,0l-14.74-13.66a7.54,7.54,0,0,0-4.86-2l-20.09-.75a7.58,7.58,0,0,1-7.28-7.29l-.76-20.08a7.55,7.55,0,0,0-2-4.87l-13.67-14.73a7.58,7.58,0,0,1,0-10.3l13.67-14.74a7.55,7.55,0,0,0,2-4.87L549,338.9a7.57,7.57,0,0,1,7.28-7.28l20.09-.76a7.54,7.54,0,0,0,4.86-2Z" transform="translate(0 0.16)"/>
<circle cx="601.07" cy="381.54" r="70.72"/><path class="cls-2" d="M994.91,4.8a7.58,7.58,0,0,1,10.3,0L1020,18.47a7.53,7.53,0,0,0,4.86,2l20.09.76a7.58,7.58,0,0,1,7.28,7.28l.76,20.09a7.53,7.53,0,0,0,2,4.86l13.67,14.74a7.58,7.58,0,0,1,0,10.3L1055,93.25a7.53,7.53,0,0,0-2,4.86l-.76,20.09a7.58,7.58,0,0,1-7.28,7.28l-20.09.76a7.53,7.53,0,0,0-4.86,2l-14.74,13.67a7.58,7.58,0,0,1-10.3,0l-14.74-13.67a7.53,7.53,0,0,0-4.86-2l-20.09-.76a7.58,7.58,0,0,1-7.28-7.28l-.76-20.09a7.53,7.53,0,0,0-2-4.86L931.5,78.51a7.58,7.58,0,0,1,0-10.3l13.67-14.74a7.53,7.53,0,0,0,2-4.86l.76-20.09a7.58,7.58,0,0,1,7.28-7.28l20.09-.76a7.53,7.53,0,0,0,4.86-2Z" transform="translate(0 0.16)"/>
<circle cx="1000.06" cy="73.52" r="70.72"/><path class="cls-3" d="M618.38,384.73c83.37.63,167.15-51.09,183.86-155.22C818.84,126,901.78,74.64,984.72,75" transform="translate(0 0.16)"/><path class="cls-3" d="M1019.63,10.68a8,8,0,0,1,12.83,6.41l-.15,32.5a8,8,0,0,0,3.44,6.61l26.69,18.55a8,8,0,0,1-2.13,14.19l-31,9.9a8,8,0,0,0-5.23,5.31l-9.39,31.12a8,8,0,0,1-14.16,2.36l-19-26.39a8,8,0,0,0-6.66-3.32l-32.5.68a8,8,0,0,1-6.62-12.74L955,69.65a8,8,0,0,0,1.1-7.36l-10.68-30.7a8,8,0,0,1,10.06-10.23l30.87,10.19a8,8,0,0,0,7.34-1.22Z" transform="translate(0 0.16)"/><path class="cls-3" d="M991.06,55h-6a4,4,0,0,0-4,4v6m36,0V59a4,4,0,0,0-4-4h-6m0,36h6a4,4,0,0,0,4-4V81m-36,0v6a4,4,0,0,0,4,4h6" transform="translate(0 0.16)"/>
<path d="M1020.06,61.5l-27.5,27-12.5-12.27" transform="translate(0 0.16)"/>
<path d="M1007.06,73.36c82.94.36,165.88,52.46,182.53,155.94,17.19,107.17,105.36,159.37,191.18,156.21" transform="translate(0 0.16)"/>
<path d="M124.4,165.65c41.78-2.22,122.35,0,160.06,0,64.44,0,100.44,0,121,58.22,16.36,103,98.44,154.88,180.91,155.51" transform="translate(0 0.16)"/>
<path d="M96.92,52.58a11,11,0,0,1,15,0l21.4,19.84a11,11,0,0,0,7.06,2.93l29.17,1.1A11,11,0,0,1,180.09,87l1.1,29.16a11,11,0,0,0,2.93,7.07L204,144.66a11,11,0,0,1,0,15L184.12,181a11,11,0,0,0-2.93,7.07l-1.1,29.16a11,11,0,0,1-10.58,10.58l-29.17,1.1a11,11,0,0,0-7.06,2.93l-21.4,19.84a11,11,0,0,1-15,0l-21.4-19.84a11,11,0,0,0-7.07-2.93l-29.16-1.1a11,11,0,0,1-10.58-10.58l-1.1-29.16A11,11,0,0,0,24.68,181L4.84,159.62a11,11,0,0,1,0-15l19.84-21.4a11,11,0,0,0,2.93-7.07L28.71,87A11,11,0,0,1,39.29,76.45l29.16-1.1a11,11,0,0,0,7.07-2.93Z" transform="translate(0 0.16)"/>
<path d="M621.64,321.06a8,8,0,0,1,12.84,6.41L634.32,360a8,8,0,0,0,3.44,6.6l26.69,18.56a8,8,0,0,1-2.13,14.19l-31,9.9a8,8,0,0,0-5.22,5.3l-9.4,31.12A8,8,0,0,1,602.59,448l-19-26.38a8,8,0,0,0-6.66-3.33l-32.5.68a8,8,0,0,1-6.62-12.73L557.05,380a8,8,0,0,0,1.11-7.36L547.47,342a8,8,0,0,1,10.06-10.23L588.4,342a8,8,0,0,0,7.35-1.23Z" transform="translate(0 0.16)"/>
<g><text class="cls-5" transform="translate(88.15 164.96)">S</text><text class="cls-6" transform="translate(94.07 164.96)">T</text><text class="cls-7" transform="translate(99.13 164.96)">A</text><text class="cls-5" transform="translate(106.47 164.96)">R</text><text class="cls-5" transform="translate(113.04 164.96)"><tspan class="cls-8">T</tspan><tspan x="7.11" y="0" xml:space="preserve"> !</tspan></text></g>
<path d="M593.07,365.38h-6a4,4,0,0,0-4,4v6m36,0v-6a4,4,0,0,0-4-4h-6m0,36h6a4,4,0,0,0,4-4v-6m-36,0v6a4,4,0,0,0,4,4h6" transform="translate(0 0.16)"/>
<path d="M622.07,371.88l-27.5,27-12.5-12.27" transform="translate(0 0.16)"/>
<path d="M1408.63,320.41a8,8,0,0,1,12.83,6.41l-.15,32.51a8,8,0,0,0,3.44,6.61l26.69,18.55a8,8,0,0,1-2.13,14.19l-31,9.9a8,8,0,0,0-5.23,5.31L1403.73,445a8,8,0,0,1-14.16,2.36l-19-26.39a8,8,0,0,0-6.66-3.33l-32.5.68a8,8,0,0,1-6.62-12.73l19.21-26.2a8,8,0,0,0,1.1-7.36l-10.68-30.7a8,8,0,0,1,10.06-10.23l30.87,10.19a8,8,0,0,0,7.34-1.22Z" transform="translate(0 0.16)"/>
<path d="M1380.06,364.74h-6a4,4,0,0,0-4,4v6m36,0v-6a4,4,0,0,0-4-4h-6m0,36h6a4,4,0,0,0,4-4v-6m-36,0v6a4,4,0,0,0,4,4h6" transform="translate(0 0.16)"/><path class="cls-3" d="M1409.06,371.24l-27.5,27L1369.06,386" transform="translate(0 0.16)"/>
<rect width="609.07" height="450.7"/>
<rect x="609.07" width="397.99" height="450.7"/><rect class="cls-3" x="609.07" width="397.99" height="450.7"/>
<rect x="1007.06" y="0.32" width="447.81" height="450.7"/>
</svg>