<svg width="191" height="66" viewBox="0 0 191 66" fill="none" xmlns="http://www.w3.org/2000/svg">
<path d="M11.2493 56.7725L2.14349 50.2514L4.35134 47.1685C4.86681 46.4487 5.41054 45.9459 5.98252 45.6602C6.5545 45.3745 7.12192 45.2691 7.68478 45.3442C8.24517 45.4044 8.7812 45.6178 9.29286 45.9842C9.7785 46.332 10.1487 46.7677 10.4035 47.2912C10.6496 47.8086 10.7307 48.3915 10.6469 49.0399C10.5605 49.6734 10.2565 50.3544 9.73484 51.0829L8.48651 52.826L12.1809 55.4717L11.2493 56.7725ZM14.6682 51.9985L9.22524 51.0525L10.25 49.6216L15.7581 50.4765L14.6682 51.9985ZM7.49788 52.118L8.70894 50.4269C9.16852 49.7852 9.3509 49.2008 9.25607 48.6736C9.15257 48.1403 8.85366 47.6967 8.35935 47.3427C7.85636 46.9825 7.35186 46.8442 6.84585 46.9279C6.33983 47.0116 5.84772 47.3873 5.36951 48.0551L4.16776 49.7331L7.49788 52.118Z" fill="#3538F5"/>
<path d="M19.2832 46.6876C18.7713 47.2744 18.1903 47.6806 17.5404 47.9063C16.8825 48.125 16.2042 48.156 15.5056 47.9995C14.814 47.8349 14.1507 47.4756 13.5158 46.9216C12.8808 46.3676 12.4349 45.7591 12.1781 45.0962C11.9283 44.4253 11.8671 43.749 11.9946 43.0675C12.114 42.379 12.4332 41.7374 12.9522 41.1426C13.4711 40.5478 14.049 40.1532 14.6859 39.9586C15.3148 39.757 15.952 39.7325 16.5974 39.8851C17.2348 40.0307 17.8187 40.335 18.3492 40.7978C18.4295 40.8679 18.518 40.9451 18.6144 41.0292C18.7028 41.1063 18.7923 41.1985 18.8827 41.3058L14.5489 46.2729L13.705 45.5366L17.0079 41.7509C16.4886 41.3403 15.9515 41.1689 15.3967 41.237C14.8338 41.298 14.349 41.5616 13.9423 42.0277C13.6618 42.3492 13.4712 42.7137 13.3704 43.1213C13.2766 43.5208 13.3008 43.9311 13.4429 44.3524C13.5839 44.7586 13.8715 45.151 14.3055 45.5297L14.6431 45.8242C15.0932 46.2169 15.5411 46.4662 15.9867 46.5719C16.4394 46.6696 16.8654 46.6519 17.2645 46.5189C17.6557 46.3789 17.9915 46.1481 18.272 45.8266C18.6086 45.4408 18.8012 45.0497 18.8498 44.6533C18.8974 44.2418 18.8291 43.8496 18.645 43.4765L19.6969 42.2709C19.9764 42.713 20.1562 43.1884 20.2362 43.6971C20.3152 44.1906 20.2778 44.6959 20.124 45.2129C19.9772 45.7219 19.6969 46.2134 19.2832 46.6876Z" fill="#3538F5"/>
<path d="M25.8307 39.9052C25.2648 40.4401 24.64 40.7885 23.9564 40.9504C23.2728 41.1122 22.5869 41.0854 21.8988 40.8699C21.2111 40.6393 20.5851 40.2255 20.0209 39.6287C19.442 39.0163 19.0604 38.3642 18.8762 37.6724C18.6996 36.9733 18.7114 36.287 18.9114 35.6135C19.1041 34.9323 19.4834 34.3242 20.0492 33.7893C20.7624 33.1152 21.5351 32.737 22.3674 32.6547C23.1924 32.5648 23.9673 32.7789 24.6922 33.2973L23.483 34.4404C23.0981 34.1731 22.6783 34.0783 22.2233 34.156C21.7684 34.2338 21.3549 34.4485 20.9829 34.8002C20.6728 35.0933 20.4593 35.442 20.3423 35.8461C20.2253 36.2503 20.2319 36.6843 20.3623 37.1483C20.493 37.5971 20.7709 38.0464 21.1959 38.4959C21.511 38.8293 21.8396 39.0837 22.1817 39.2593C22.5165 39.4272 22.8457 39.527 23.1693 39.5587C23.4933 39.5754 23.8039 39.5313 24.1011 39.4265C24.391 39.3139 24.6522 39.1477 24.8848 38.9279C25.1406 38.6861 25.3326 38.4312 25.4609 38.1631C25.5895 37.88 25.6467 37.5911 25.6324 37.2964C25.6258 36.9944 25.5395 36.7091 25.3735 36.4403L26.5827 35.2972C27.0449 36.0346 27.2152 36.8203 27.0937 37.6544C26.9648 38.4808 26.5438 39.2311 25.8307 39.9052Z" fill="#3538F5"/>
<path d="M32.9662 33.8096C32.3677 34.2736 31.7235 34.5569 31.0339 34.6595C30.3461 34.7473 29.6703 34.6502 29.0066 34.3684C28.3447 34.0717 27.7557 33.5903 27.2395 32.9242C26.7233 32.2582 26.4115 31.5687 26.3042 30.8556C26.1903 30.1341 26.2692 29.4523 26.5406 28.81C26.8055 28.1593 27.2331 27.6053 27.8232 27.1479C28.4303 26.6774 29.0776 26.3983 29.7654 26.3106C30.4551 26.2079 31.1276 26.3007 31.7829 26.5891C32.4466 26.8708 33.0399 27.349 33.5626 28.0234C34.0788 28.6895 34.3939 29.3832 34.5077 30.1047C34.615 30.8178 34.5362 31.4996 34.2713 32.1503C34.0083 32.786 33.5733 33.3391 32.9662 33.8096ZM32.1233 32.722C32.469 32.4541 32.7188 32.1323 32.8729 31.7564C33.0289 31.3656 33.0605 30.9363 32.9677 30.4684C32.8834 29.9939 32.6517 29.5122 32.2727 29.0232C31.8872 28.5258 31.4827 28.178 31.0592 27.9799C30.6292 27.7734 30.2088 27.7011 29.798 27.7631C29.3891 27.8101 29.0161 27.9643 28.6788 28.2257C28.35 28.4805 28.1034 28.8066 27.939 29.2039C27.7765 29.5863 27.7374 30.0147 27.8218 30.4891C27.908 30.9486 28.1439 31.4271 28.5294 31.9245C28.9084 32.4135 29.3129 32.7612 29.7429 32.9678C30.1813 33.1678 30.605 33.2443 31.0139 33.1973C31.4247 33.1353 31.7945 32.9769 32.1233 32.722Z" fill="#3538F5"/>
<path d="M37.7492 30.0795L33.3485 23.3604L34.5531 22.5714L35.5063 23.764C35.4593 23.3613 35.4846 22.9813 35.5822 22.6241C35.6829 22.2522 35.8558 21.903 36.1011 21.5766C36.3553 21.2444 36.6876 20.9438 37.098 20.675L38.0185 22.0804L37.5768 22.3697C37.2913 22.5567 37.047 22.7677 36.8439 23.0027C36.6408 23.2378 36.4937 23.4999 36.4026 23.7891C36.3204 24.0724 36.3163 24.3875 36.3904 24.7342C36.4645 25.081 36.636 25.4596 36.9048 25.87L39.0877 29.2028L37.7492 30.0795Z" fill="#3538F5"/>
<path d="M45.9073 25.3278C45.2324 25.6944 44.5507 25.8583 43.862 25.8197C43.1683 25.7716 42.526 25.55 41.935 25.1549C41.3484 24.7452 40.8615 24.1842 40.4746 23.4718C40.0877 22.7595 39.8846 22.0504 39.8654 21.3447C39.8556 20.6338 40.0219 19.979 40.3643 19.3803C40.7161 18.7765 41.2341 18.2888 41.9183 17.9171C42.4714 17.6167 43.0199 17.4645 43.5638 17.4603C44.1027 17.4468 44.5963 17.5732 45.0444 17.8396L42.7915 13.692L44.1975 12.9283L49.6961 23.0513L48.4308 23.7386L47.6945 22.7183C47.6616 23.0154 47.5861 23.3234 47.4681 23.6424C47.345 23.9521 47.1572 24.2544 46.9047 24.5494C46.6615 24.8392 46.3291 25.0987 45.9073 25.3278ZM45.4819 23.9748C45.913 23.7406 46.2413 23.4287 46.4668 23.0392C46.6922 22.6497 46.7994 22.2213 46.7883 21.7539C46.7721 21.2772 46.629 20.7904 46.3592 20.2936C46.0894 19.7969 45.7614 19.4166 45.3754 19.1529C44.9843 18.8798 44.564 18.7318 44.1146 18.7088C43.6651 18.6859 43.2201 18.7941 42.7796 19.0334C42.3578 19.2625 42.0342 19.5718 41.8088 19.9613C41.5833 20.3508 41.4787 20.7839 41.4949 21.2607C41.506 21.7281 41.6465 22.2101 41.9163 22.7069C42.1811 23.1943 42.509 23.5746 42.9001 23.8477C43.2912 24.1208 43.7115 24.2688 44.161 24.2917C44.6104 24.3146 45.0507 24.209 45.4819 23.9748Z" fill="#3538F5"/>
<path d="M57.937 23.3111L58.2368 18.4858L57.7871 18.6536L52.309 13.0813L53.943 12.4715L58.3477 17.044L58.6948 10.6981L60.2688 10.1107L59.511 22.7238L57.937 23.3111Z" fill="#3538F5"/>
<path d="M67.3624 16.6933C66.6314 16.8912 65.9279 16.9048 65.2518 16.7342C64.5832 16.5505 63.9969 16.2009 63.4927 15.6854C62.996 15.1568 62.6375 14.4858 62.4174 13.6724C62.1972 12.859 62.1748 12.1026 62.3501 11.4031C62.5227 10.6934 62.8578 10.0944 63.3555 9.60603C63.8504 9.1074 64.4582 8.76054 65.1789 8.56544C65.9203 8.36478 66.6252 8.3563 67.2937 8.54C67.9698 8.71062 68.5548 9.05507 69.0487 9.57336C69.5529 10.0889 69.9165 10.7585 70.1395 11.5821C70.3596 12.3955 70.3834 13.1571 70.2109 13.8668C70.0355 14.5663 69.7004 15.1653 69.2055 15.664C68.7181 16.1495 68.1038 16.4926 67.3624 16.6933ZM67.0029 15.3651C67.4251 15.2508 67.7795 15.0499 68.0664 14.7623C68.3607 14.4616 68.5551 14.0775 68.6495 13.6099C68.7542 13.1395 68.7258 12.6057 68.5641 12.0086C68.3997 11.4011 68.1602 10.9244 67.8456 10.5786C67.5282 10.2225 67.168 9.99404 66.7649 9.89317C66.3694 9.77922 65.9657 9.77799 65.5539 9.88947C65.1523 9.99816 64.7993 10.2042 64.4946 10.5077C64.1975 10.7981 63.9966 11.1785 63.8919 11.6488C63.7946 12.1061 63.8282 12.6385 63.9927 13.246C64.1543 13.8432 64.3938 14.3198 64.7112 14.6759C65.0389 15.0292 65.4005 15.2629 65.7961 15.3768C66.1991 15.4777 66.6014 15.4738 67.0029 15.3651Z" fill="#3538F5"/>
<path d="M76.1736 14.7394C75.553 14.8437 74.9953 14.8075 74.5005 14.6311C74.0058 14.4546 73.5898 14.1351 73.2525 13.6726C72.924 13.1978 72.6952 12.5765 72.5662 11.8085L71.7815 7.138L73.3594 6.87292L74.1176 11.3857C74.243 12.1325 74.4954 12.6688 74.8746 12.9945C75.2643 13.3184 75.7642 13.4291 76.3743 13.3266C76.7951 13.2559 77.1517 13.0933 77.4442 12.8386C77.7473 12.5822 77.9617 12.2487 78.0874 11.8382C78.2131 11.4277 78.23 10.949 78.1381 10.402L77.4304 6.189L79.0083 5.92392L80.339 13.8449L78.9347 14.0808L78.5962 12.7424C78.4338 13.2564 78.1398 13.6952 77.7141 14.0588C77.2972 14.41 76.7837 14.6369 76.1736 14.7394Z" fill="#3538F5"/>
<path d="M82.5501 13.6353L81.8464 5.63422L83.2809 5.50806L83.5575 7.0096C83.7064 6.63244 83.9082 6.30952 84.163 6.04084C84.4274 5.76059 84.7449 5.53458 85.1152 5.3628C85.4962 5.19009 85.9311 5.08224 86.4199 5.03926L86.5671 6.7128L86.0411 6.75906C85.7011 6.78896 85.3861 6.8595 85.096 6.97067C84.806 7.08184 84.5525 7.24333 84.3355 7.45515C84.1292 7.66604 83.9768 7.94179 83.8783 8.2824C83.7797 8.62301 83.7519 9.0377 83.7949 9.52648L84.144 13.4952L82.5501 13.6353Z" fill="#3538F5"/>
<path d="M93.5486 13.0429L93.851 3.89595C93.8693 3.34158 93.9749 2.89149 94.1678 2.54568C94.3713 2.20021 94.657 1.95352 95.0247 1.80559C95.3925 1.65766 95.8322 1.59216 96.3439 1.60908L97.2554 1.63922L97.2105 2.99847L96.5548 2.97679C96.1711 2.96411 95.8912 3.0349 95.7154 3.18917C95.5505 3.33313 95.4618 3.59701 95.4491 3.9808L95.1477 13.0958L93.5486 13.0429ZM92.5862 6.31947L92.6306 4.97621L97.3321 5.13166L97.2876 6.47492L92.5862 6.31947Z" fill="#3538F5"/>
<path d="M97.7263 13.1811L97.9917 5.1535L99.5908 5.20637L99.3254 13.234L97.7263 13.1811ZM98.842 3.64478C98.5435 3.63491 98.2962 3.53068 98.1 3.33208C97.9144 3.13384 97.8266 2.88547 97.8364 2.58697C97.846 2.29913 97.9497 2.06776 98.1476 1.89287C98.3565 1.70767 98.6102 1.62001 98.9087 1.62988C99.2178 1.6401 99.4705 1.74451 99.6667 1.9431C99.8633 2.13103 99.9568 2.36892 99.9473 2.65676C99.9374 2.95527 99.828 3.19712 99.6191 3.38231C99.4102 3.56751 99.1512 3.655 98.842 3.64478Z" fill="#3538F5"/>
<path d="M102.331 13.4844L103.214 5.50106L104.645 5.65927L104.621 7.18589C104.841 6.84534 105.103 6.56838 105.405 6.355C105.72 6.13219 106.075 5.97297 106.472 5.87733C106.88 5.78287 107.327 5.76259 107.815 5.81649L107.63 7.48632L107.106 7.42831C106.766 7.39081 106.444 7.39806 106.137 7.45007C105.831 7.50207 105.551 7.6106 105.297 7.77565C105.053 7.94188 104.849 8.1823 104.686 8.4969C104.522 8.8115 104.413 9.21265 104.359 9.70035L103.922 13.6602L102.331 13.4844Z" fill="#3538F5"/>
<path d="M111.471 14.9644C110.81 14.8433 110.243 14.6255 109.769 14.311C109.306 13.9984 108.964 13.6159 108.743 13.1634C108.522 12.7109 108.429 12.2113 108.464 11.6647L110.054 11.9558C110.071 12.2192 110.133 12.4692 110.242 12.706C110.361 12.9446 110.54 13.1509 110.779 13.3249C111.029 13.5008 111.337 13.6223 111.705 13.6896C112.051 13.753 112.343 13.7577 112.58 13.7036C112.82 13.6391 113.008 13.5324 113.143 13.3838C113.291 13.2266 113.383 13.0535 113.417 12.8647C113.471 12.5709 113.438 12.3371 113.318 12.1633C113.21 11.9809 113.023 11.8218 112.755 11.686C112.499 11.5416 112.179 11.3962 111.794 11.2497C111.461 11.1128 111.131 10.9602 110.804 10.7919C110.487 10.6255 110.208 10.4333 109.966 10.2155C109.724 9.99766 109.547 9.74842 109.436 9.46779C109.327 9.17665 109.306 8.84748 109.373 8.48025C109.458 8.0186 109.653 7.63151 109.96 7.31898C110.266 7.00645 110.658 6.79087 111.136 6.67224C111.625 6.54504 112.174 6.53717 112.783 6.64863C113.654 6.80815 114.318 7.14675 114.776 7.66445C115.247 8.17358 115.454 8.81879 115.398 9.60009L113.887 9.32334C113.898 8.9675 113.785 8.66491 113.549 8.41559C113.323 8.1682 112.985 8.00318 112.534 7.92054C112.082 7.8379 111.719 7.86891 111.443 8.01357C111.169 8.14773 111.006 8.35645 110.954 8.63974C110.92 8.8286 110.957 9.00897 111.066 9.18084C111.186 9.35463 111.368 9.51802 111.611 9.67098C111.867 9.81538 112.175 9.96414 112.538 10.1173C113.064 10.3221 113.533 10.5436 113.945 10.7817C114.359 11.0093 114.669 11.2993 114.876 11.6516C115.093 12.0058 115.149 12.4662 115.046 13.0328C114.955 13.5259 114.75 13.9383 114.429 14.2699C114.108 14.6015 113.692 14.8289 113.181 14.9523C112.681 15.0776 112.111 15.0816 111.471 14.9644Z" fill="#3538F5"/>
<path d="M119.397 16.5831C118.912 16.4569 118.503 16.268 118.172 16.0165C117.851 15.7677 117.639 15.4371 117.537 15.0248C117.445 14.6151 117.48 14.1006 117.641 13.4812L118.68 9.48616L117.333 9.13575L117.672 7.83503L119.019 8.18545L119.712 6.2827L121.075 6.63714L120.567 8.58822L122.766 9.16016L122.428 10.4609L120.229 9.88894L119.186 13.8995C119.07 14.3434 119.079 14.6707 119.211 14.8816C119.357 15.0847 119.657 15.2454 120.111 15.3636L121.009 15.5972L120.667 16.9134L119.397 16.5831Z" fill="#3538F5"/>
<path d="M126.779 18.7329L129.961 11.358L131.283 11.9285L130.942 13.0012C131.338 12.7305 131.778 12.5719 132.263 12.5254C132.747 12.479 133.235 12.5614 133.724 12.7727C134.096 12.9333 134.413 13.128 134.675 13.357C134.946 13.5901 135.155 13.8602 135.301 14.1673C135.447 14.4744 135.526 14.8164 135.538 15.1931C135.983 14.8623 136.476 14.6744 137.018 14.6295C137.574 14.579 138.107 14.6637 138.616 14.8834C139.214 15.1412 139.677 15.4805 140.007 15.9015C140.336 16.3225 140.51 16.8215 140.528 17.3986C140.547 17.9757 140.402 18.6217 140.093 19.3367L138.223 23.6705L136.769 23.043L138.575 18.8561C138.875 18.1607 138.959 17.5755 138.827 17.1004C138.71 16.6197 138.381 16.2631 137.843 16.0307C137.48 15.8744 137.117 15.828 136.753 15.8915C136.388 15.955 136.045 16.1321 135.722 16.4226C135.413 16.7076 135.149 17.1047 134.929 17.614L133.243 21.5218L131.774 20.888L133.58 16.701C133.88 16.0057 133.964 15.4204 133.832 14.9453C133.705 14.4604 133.377 14.1038 132.848 13.8756C132.495 13.7235 132.137 13.6792 131.772 13.7428C131.408 13.8063 131.064 13.9834 130.742 14.2739C130.423 14.5546 130.154 14.9497 129.934 15.4589L128.248 19.3667L126.779 18.7329Z" fill="#3538F5"/>
<path d="M143.15 26.837C142.479 26.4432 141.971 25.9481 141.629 25.3515C141.291 24.7458 141.135 24.0851 141.158 23.3696C141.191 22.6594 141.421 21.9409 141.847 21.2139C142.273 20.4869 142.788 19.9356 143.391 19.5599C144.004 19.1895 144.657 19.0036 145.351 19.002C146.049 18.9912 146.739 19.1853 147.42 19.5845C148.101 19.9837 148.596 20.478 148.906 21.0676C149.221 21.648 149.364 22.2694 149.334 22.932C149.31 23.5853 149.119 24.2157 148.763 24.823C148.709 24.915 148.65 25.0163 148.585 25.1267C148.526 25.2279 148.452 25.333 148.364 25.4418L142.677 22.1082L143.243 21.142L147.577 23.6826C147.884 23.0959 147.952 22.5363 147.782 22.0039C147.618 21.4622 147.268 21.035 146.735 20.7221C146.367 20.5063 145.973 20.3869 145.554 20.3637C145.144 20.346 144.745 20.4461 144.358 20.6641C143.985 20.8783 143.653 21.2338 143.362 21.7308L143.135 22.1173C142.833 22.6326 142.671 23.119 142.65 23.5766C142.639 24.0396 142.735 24.4548 142.94 24.8222C143.151 25.1805 143.44 25.4675 143.808 25.6832C144.25 25.9421 144.67 26.0586 145.068 26.0326C145.482 26.0027 145.854 25.8626 146.187 25.6122L147.567 26.4214C147.185 26.7784 146.751 27.0435 146.266 27.2167C145.796 27.3862 145.292 27.4435 144.756 27.3886C144.228 27.3391 143.693 27.1552 143.15 26.837Z" fill="#3538F5"/>
<path d="M148.274 29.6174L153.153 23.2375L154.297 24.1123L153.706 25.07C154.155 24.9036 154.621 24.8568 155.102 24.9296C155.584 25.0024 156.036 25.2008 156.46 25.5248C156.782 25.7711 157.042 26.037 157.24 26.3226C157.446 26.6147 157.583 26.9275 157.65 27.2609C157.717 27.5944 157.711 27.9453 157.631 28.3136C158.142 28.1008 158.667 28.0385 159.204 28.1268C159.755 28.2131 160.251 28.4247 160.692 28.7617C161.209 29.157 161.576 29.5989 161.793 30.0873C162.01 30.5758 162.058 31.1021 161.935 31.6663C161.812 32.2305 161.515 32.8219 161.042 33.4404L158.174 37.1895L156.916 36.2272L159.686 32.6052C160.146 32.0036 160.37 31.4564 160.358 30.9634C160.36 30.4685 160.128 30.0428 159.662 29.6864C159.349 29.4466 159.008 29.3133 158.639 29.2863C158.27 29.2594 157.894 29.3476 157.51 29.5509C157.141 29.7522 156.788 30.0732 156.451 30.5138L153.866 33.8943L152.595 32.9223L155.365 29.3003C155.825 28.6987 156.049 28.1515 156.037 27.6585C156.031 27.1571 155.799 26.7314 155.341 26.3815C155.036 26.1482 154.7 26.0181 154.331 25.9911C153.962 25.9642 153.586 26.0524 153.202 26.2557C152.824 26.4506 152.467 26.7683 152.13 27.2088L149.545 30.5894L148.274 29.6174Z" fill="#3538F5"/>
<path d="M162.199 41.4727C161.66 40.9413 161.293 40.3407 161.099 39.6709C160.921 39.001 160.927 38.3183 161.118 37.623C161.323 36.9274 161.722 36.2795 162.313 35.679C162.904 35.0786 163.546 34.6777 164.239 34.4762C164.939 34.2672 165.625 34.2543 166.298 34.4377C166.978 34.6135 167.584 34.9633 168.116 35.4872C168.663 36.0261 169.026 36.6305 169.205 37.3004C169.398 37.9702 169.396 38.6491 169.198 39.337C169.007 40.0324 168.612 40.6841 168.014 41.2921C167.422 41.8926 166.777 42.2973 166.077 42.5063C165.384 42.7078 164.698 42.7206 164.018 42.5448C163.353 42.3689 162.747 42.0116 162.199 41.4727ZM163.165 40.4923C163.477 40.7991 163.829 41.0038 164.222 41.1064C164.63 41.2088 165.06 41.1829 165.511 41.0286C165.97 40.8817 166.417 40.5879 166.851 40.1471C167.292 39.6986 167.583 39.2514 167.723 38.8053C167.87 38.3516 167.886 37.9253 167.77 37.5264C167.668 37.1274 167.466 36.7783 167.162 36.4789C166.865 36.187 166.509 35.9861 166.094 35.8762C165.693 35.7661 165.263 35.7845 164.804 35.9314C164.36 36.0781 163.918 36.3757 163.476 36.8241C163.042 37.2649 162.751 37.7122 162.604 38.1659C162.464 38.6271 162.445 39.0571 162.546 39.4561C162.662 39.855 162.869 40.2004 163.165 40.4923Z" fill="#3538F5"/>
<path d="M166.532 45.7089L172.613 40.4621L173.554 41.5524L172.497 42.6544C172.89 42.5548 173.27 42.5298 173.637 42.5795C174.019 42.6304 174.388 42.7559 174.744 42.956C175.107 43.1643 175.448 43.4542 175.769 43.8257L174.497 44.9231L174.152 44.5233C173.929 44.2649 173.687 44.0505 173.428 43.8801C173.168 43.7097 172.889 43.5983 172.59 43.5461C172.298 43.5019 171.986 43.5394 171.652 43.6584C171.318 43.7775 170.965 43.9973 170.593 44.3178L167.577 46.9203L166.532 45.7089Z" fill="#3538F5"/>
<path d="M168.25 53.2402L172.974 52.2129L172.69 51.826L176.558 45.0362L177.59 46.442L174.392 51.9265L180.592 50.5303L181.586 51.8845L169.244 54.5943L168.25 53.2402Z" fill="#3538F5"/>
<path d="M178.791 56.3889L185.36 52.0187L186.285 53.4784L179.519 57.5377L178.791 56.3889ZM176.294 58.7854C176.129 58.5241 176.073 58.2565 176.126 57.9825C176.195 57.7119 176.346 57.5023 176.58 57.3539C176.824 57.1998 177.078 57.1524 177.343 57.2119C177.622 57.2746 177.845 57.4366 178.011 57.6979C178.176 57.9592 178.225 58.2252 178.156 58.4958C178.097 58.7608 177.945 58.9703 177.702 59.1245C177.468 59.2729 177.214 59.3202 176.94 59.2665C176.675 59.2071 176.46 59.0467 176.294 58.7854Z" fill="#3538F5"/>
</svg>
