<svg width="3797" height="356" viewBox="0 0 3797 356" fill="none" xmlns="http://www.w3.org/2000/svg">
<path d="M20 115.999C61.7842 113.78 142.345 115.999 180.063 115.999C244.5 115.999 280.5 115.999 301.086 174.223C333.99 381.407 632.636 381.641 665.866 174.509C699.07 -32.4583 997.628 -31.0242 1030.83 175.943C1064.12 383.434 1363.43 384.871 1396.72 177.381C1430.01 -30.1094 1729.09 -30.1094 1762.37 177.381C1795.66 384.871 2094.74 384.871 2128.03 177.381C2161.23 -29.5866 2459.79 -28.1517 2493 178.816C2526.28 386.306 2825.6 387.744 2858.88 180.254C2892.17 -27.2368 3191.25 -27.2369 3224.54 180.254C3257.83 387.744 3556.91 387.744 3590.2 180.253C3607.08 74.9928 3692.37 23.1313 3776.66 24.6689" 
    stroke="#4867C1" stroke-opacity="0.27" stroke-width="40" stroke-linecap="round"/>
</svg>
