<?xml version="1.0" encoding="utf-8"?>
<!-- Generator: Adobe Illustrator 26.0.1, SVG Export Plug-In . SVG Version: 6.00 Build 0)  -->
<svg version="1.1" id="Layer_1" xmlns="http://www.w3.org/2000/svg" xmlns:xlink="http://www.w3.org/1999/xlink" x="0px" y="0px"
	 viewBox="0 0 502 349.7" style="enable-background:new 0 0 502 349.7;" xml:space="preserve">
<style type="text/css">
	.st0{fill:none;stroke:#4867C1;stroke-width:40;stroke-linecap:round;stroke-opacity:0.27;}
	.st1{fill:none;stroke:#000000;stroke-miterlimit:10;}
	.st2{fill:#FFFFFF;}
	.st3{fill:#4867C1;}
	.st4{font-family:'MyriadPro-Regular';}
	.st5{font-size:12px;}
	.st6{fill:none;stroke:#FFFFFF;stroke-width:5;stroke-linecap:round;stroke-linejoin:round;}
</style>
<path class="st0" d="M20,116c41.8-2.2,122.4,0,160.1,0c64.4,0,100.4,0,121,58.2c16.4,103,98.4,154.9,180.9,155.5"/>
<rect class="st1" width="502" height="349.7"/>
<g>
	<path class="st2" d="M-7.5,2.9C-3.3-1,3.3-1,7.5,2.9l21.4,19.8c1.9,1.8,4.4,2.8,7.1,2.9l29.2,1.1c5.8,0.2,10.4,4.8,10.6,10.6
		l1.1,29.2c0.1,2.6,1.1,5.1,2.9,7.1L99.6,95c3.9,4.2,3.9,10.7,0,15l-19.8,21.4c-1.8,1.9-2.8,4.4-2.9,7.1l-1.1,29.2
		c-0.2,5.8-4.8,10.4-10.6,10.6l-29.2,1.1c-2.6,0.1-5.1,1.1-7.1,2.9L7.5,202.1c-4.2,3.9-10.7,3.9-15,0l-21.4-19.8
		c-1.9-1.8-4.4-2.8-7.1-2.9l-29.2-1.1c-5.8-0.2-10.4-4.8-10.6-10.6l-1.1-29.2c-0.1-2.6-1.1-5.1-2.9-7.1L-99.6,110
		c-3.9-4.2-3.9-10.7,0-15l19.8-21.4c1.8-1.9,2.8-4.4,2.9-7.1l1.1-29.2c0.2-5.7,4.8-10.4,10.6-10.6l29.2-1.1c2.6-0.1,5.1-1.1,7.1-2.9
		L-7.5,2.9z"/>
</g>
<path class="st3" d="M517.2,271.4c5.3-4,12.9-0.2,12.8,6.4l-0.2,32.5c0,2.6,1.3,5.1,3.4,6.6l26.7,18.6c5.4,3.8,4.2,12.2-2.1,14.2
	l-31,9.9c-2.5,0.8-4.5,2.8-5.2,5.3l-9.4,31.1c-1.9,6.3-10.3,7.7-14.2,2.4l-19-26.4c-1.5-2.1-4-3.4-6.7-3.3l-32.5,0.7
	c-6.6,0.1-10.5-7.4-6.6-12.7l19.2-26.2c1.6-2.1,2-4.9,1.1-7.4l-10.7-30.7c-2.2-6.3,3.8-12.3,10.1-10.2l30.9,10.2
	c2.5,0.8,5.2,0.4,7.3-1.2L517.2,271.4z"/>
<text transform="matrix(1 0 0 1 -16.247 115.1549)" class="st4 st5">START !</text>
<path class="st6" d="M488.7,315.7h-6c-1.1,0-2.1,0.4-2.8,1.2c-0.8,0.8-1.2,1.8-1.2,2.8v6 M514.7,325.7v-6c0-1.1-0.4-2.1-1.2-2.8
	c-0.8-0.8-1.8-1.2-2.8-1.2h-6 M504.7,351.7h6c1.1,0,2.1-0.4,2.8-1.2c0.8-0.8,1.2-1.8,1.2-2.8v-6 M478.7,341.7v6
	c0,1.1,0.4,2.1,1.2,2.8c0.8,0.8,1.8,1.2,2.8,1.2h6"/>
<path class="st6" d="M517.7,322.2l-27.5,27L477.7,337"/>
</svg>
