<svg id="Layer_1" data-name="Layer 1" xmlns="http://www.w3.org/2000/svg" viewBox="0 0 1454.87 451.34">
<path d="M618.38,384.73c83.37.63,167.15-51.09,183.86-155.22C818.84,126,901.78,74.64,984.72,75"/>
<path d="M1019.63,10.68a8,8,0,0,1,12.83,6.41l-.15,32.5a8,8,0,0,0,3.44,6.61l26.69,18.55a8,8,0,0,1-2.13,14.19l-31,9.9a8,8,0,0,0-5.23,5.31l-9.39,31.12a8,8,0,0,1-14.16,2.36l-19-26.39a8,8,0,0,0-6.66-3.32l-32.5.68a8,8,0,0,1-6.62-12.74L955,69.65a8,8,0,0,0,1.1-7.36l-10.68-30.7a8,8,0,0,1,10.06-10.23l30.87,10.19a8,8,0,0,0,7.34-1.22Z"/>
<path d="M991.06,55h-6a4,4,0,0,0-4,4v6m36,0V59a4,4,0,0,0-4-4h-6m0,36h6a4,4,0,0,0,4-4V81m-36,0v6a4,4,0,0,0,4,4h6"/>
<path d="M1020.06,61.5l-27.5,27-12.5-12.27"/>
<path d="M1007.06,73.36c82.94.36,165.88,52.46,182.53,155.94,17.19,107.17,105.36,159.37,191.18,156.21"/>
<path d="M124.4,165.65c41.78-2.22,122.35,0,160.06,0,64.44,0,100.44,0,121,58.22,16.36,103,98.44,154.88,180.91,155.51"/>
<path d="M96.92,52.58a11,11,0,0,1,15,0l21.4,19.84a11,11,0,0,0,7.06,2.93l29.17,1.1A11,11,0,0,1,180.09,87l1.1,29.16a11,11,0,0,0,2.93,7.07L204,144.66a11,11,0,0,1,0,15L184.12,181a11,11,0,0,0-2.93,7.07l-1.1,29.16a11,11,0,0,1-10.58,10.58l-29.17,1.1a11,11,0,0,0-7.06,2.93l-21.4,19.84a11,11,0,0,1-15,0l-21.4-19.84a11,11,0,0,0-7.07-2.93l-29.16-1.1a11,11,0,0,1-10.58-10.58l-1.1-29.16A11,11,0,0,0,24.68,181L4.84,159.62a11,11,0,0,1,0-15l19.84-21.4a11,11,0,0,0,2.93-7.07L28.71,87A11,11,0,0,1,39.29,76.45l29.16-1.1a11,11,0,0,0,7.07-2.93Z"/>
<path d="M621.64,321.06a8,8,0,0,1,12.84,6.41L634.32,360a8,8,0,0,0,3.44,6.6l26.69,18.56a8,8,0,0,1-2.13,14.19l-31,9.9a8,8,0,0,0-5.22,5.3l-9.4,31.12A8,8,0,0,1,602.59,448l-19-26.38a8,8,0,0,0-6.66-3.33l-32.5.68a8,8,0,0,1-6.62-12.73L557.05,380a8,8,0,0,0,1.11-7.36L547.47,342a8,8,0,0,1,10.06-10.23l30.87,10.19a8,8,0,0,0,7.35-1.23Z"/>
<text transform="translate(88.15 164.8)">S<tspan class="cls-6" x="5.92" y="0">T</tspan><tspan x="10.98" y="0">A</tspan><tspan class="cls-7" x="18.32" y="0">R</tspan><tspan x="24.89" y="0">T !</tspan></text>
<path d="M593.07,365.38h-6a4,4,0,0,0-4,4v6m36,0v-6a4,4,0,0,0-4-4h-6m0,36h6a4,4,0,0,0,4-4v-6m-36,0v6a4,4,0,0,0,4,4h6"/><path class="cls-3" d="M622.07,371.88l-27.5,27-12.5-12.27"/>
<path d="M1408.63,320.41a8,8,0,0,1,12.83,6.41l-.15,32.51a8,8,0,0,0,3.44,6.61l26.69,18.55a8,8,0,0,1-2.13,14.19l-31,9.9a8,8,0,0,0-5.23,5.31L1403.73,445a8,8,0,0,1-14.16,2.36l-19-26.39a8,8,0,0,0-6.66-3.33l-32.5.68a8,8,0,0,1-6.62-12.73L1344,379.39a8,8,0,0,0,1.1-7.36l-10.68-30.7a8,8,0,0,1,10.06-10.23l30.87,10.19a8,8,0,0,0,7.34-1.22Z"/>
<path d="M1380.06,364.74h-6a4,4,0,0,0-4,4v6m36,0v-6a4,4,0,0,0-4-4h-6m0,36h6a4,4,0,0,0,4-4v-6m-36,0v6a4,4,0,0,0,4,4h6"/>
<path d="M1409.06,371.24l-27.5,27L1369.06,386"/>
<rect class="cls-4" width="609.07" height="450.7"/>
<rect class="cls-4" x="609.07" width="397.99" height="450.7"/>
<rect x="609.07" width="397.99" height="450.7"/>
<rect class="cls-4" x="1007.06" y="0.32" width="447.81" height="450.7"/>
</svg>