<svg width="19" height="18" viewBox="0 0 19 18" fill="none" xmlns="http://www.w3.org/2000/svg">
<path d="M7.66509 1.23146C8.3614 -0.374297 10.6386 -0.374295 11.3349 1.23146L12.4247 3.74463C12.7145 4.41294 13.3447 4.87083 14.0699 4.93993L16.7968 5.19978C18.5392 5.36581 19.2429 7.53154 17.9309 8.68998L15.8775 10.5031C15.3314 10.9852 15.0907 11.7261 15.2491 12.4371L15.8446 15.1109C16.2251 16.8192 14.3828 18.1577 12.8757 17.2679L10.5168 15.8753C9.88951 15.505 9.11049 15.505 8.48322 15.8753L6.12435 17.2679C4.61718 18.1577 2.77489 16.8192 3.1554 15.1109L3.75094 12.4371C3.90931 11.7261 3.66858 10.9852 3.12254 10.5031L1.06914 8.68998C-0.242861 7.53154 0.460833 5.3658 2.20317 5.19978L4.9301 4.93993C5.65526 4.87083 6.28549 4.41294 6.57529 3.74463L7.66509 1.23146Z" fill="#FDF8F2"/>
</svg>
